<svg width="806" height="418" viewBox="0 0 806 418" fill="none" xmlns="http://www.w3.org/2000/svg">
<path d="M2 91C2 74.4315 15.4315 61 32 61H440.254L344.797 357H32C15.4314 357 2 343.569 2 327V91Z" stroke="black" stroke-width="4"/>
<path d="M804 327C804 343.569 790.569 357 774 357H365.746L461.203 61H774C790.569 61 804 74.4315 804 91V327Z" stroke="black" stroke-width="4"/>
<path d="M102.927 208.968C105.033 198.019 109.188 187.63 115.393 177.801C121.694 167.891 129.71 159.221 139.44 151.789C149.171 144.357 160.514 138.483 173.47 134.167C186.523 129.772 200.861 127.574 216.486 127.574C232.762 127.574 246.498 129.572 257.692 133.568C268.983 137.484 277.858 142.958 284.317 149.99C290.858 157.023 295.119 165.334 297.099 174.924C299.078 184.514 298.984 194.943 296.817 206.21C294.71 217.159 290.586 227.388 284.443 236.898C278.382 246.408 270.598 254.719 261.091 261.831C251.6 268.864 240.481 274.418 227.734 278.493C215.069 282.569 201.127 284.607 185.909 284.607C172.807 284.607 160.663 283.008 149.478 279.812C138.374 276.615 128.954 271.86 121.216 265.547C113.495 259.154 107.896 251.242 104.42 241.812C101.026 232.383 100.528 221.434 102.927 208.968ZM117.612 272.859C121.194 275.816 125.35 278.533 130.082 281.011C134.911 283.408 140.167 285.486 145.851 287.244C151.601 289.082 157.72 290.481 164.209 291.439C170.682 292.478 177.377 292.998 184.295 292.998C199.431 292.998 213.78 290.96 227.341 286.884C240.886 282.889 253.02 277.135 263.743 269.623C274.481 262.031 283.476 252.921 290.729 242.292C298.079 231.583 303.038 219.556 305.606 206.21C306.882 199.578 307.207 193.025 306.58 186.551C306.051 179.998 304.686 173.765 302.488 167.851C300.289 161.938 297.281 156.424 293.463 151.309C289.646 146.195 285.135 141.719 279.933 137.883C286.25 141 291.634 144.956 296.082 149.751C300.628 154.466 304.203 159.78 306.809 165.694C309.415 171.607 311.033 178.001 311.664 184.873C312.295 191.746 311.903 198.858 310.489 206.21C307.829 220.036 302.811 232.582 295.435 243.85C288.14 255.118 278.922 264.748 267.782 272.739C256.738 280.651 244.047 286.764 229.708 291.08C215.45 295.395 200.02 297.553 183.418 297.553C168.037 297.553 154.798 295.515 143.701 291.439C132.588 287.444 123.892 281.25 117.612 272.859ZM133.629 208.009C131.876 217.119 131.984 225.23 133.952 232.343C135.92 239.455 139.358 245.489 144.264 250.443C149.267 255.318 155.51 259.034 162.993 261.591C170.558 264.149 179.06 265.427 188.5 265.427C199.324 265.427 209.153 263.829 217.987 260.632C226.918 257.356 234.714 253.001 241.375 247.566C248.036 242.132 253.474 235.859 257.691 228.746C261.923 221.554 264.792 214.042 266.299 206.21C268.036 197.18 268.066 188.989 266.388 181.637C264.792 174.285 261.637 168.051 256.924 162.937C252.308 157.742 246.201 153.746 238.601 150.949C231.082 148.152 222.277 146.754 212.186 146.754C202.42 146.754 193.144 148.232 184.355 151.189C175.664 154.066 167.833 158.182 160.862 163.536C153.972 168.89 148.129 175.363 143.332 182.955C138.631 190.467 135.397 198.818 133.629 208.009ZM142.349 208.368C143.763 201.016 146.355 194.103 150.123 187.63C153.972 181.157 158.84 175.523 164.727 170.728C170.614 165.933 177.407 162.138 185.106 159.341C192.806 156.543 201.294 155.145 210.572 155.145C220.744 155.145 229.383 156.983 236.488 160.659C243.609 164.255 249.202 169.45 253.266 176.242C246.8 170.089 239.973 165.814 232.784 163.416C225.692 160.939 217.996 159.7 209.695 159.7C201.313 159.7 193.58 160.979 186.496 163.536C179.413 166.093 173.162 169.61 167.743 174.085C162.422 178.48 157.972 183.635 154.392 189.548C150.895 195.462 148.508 201.735 147.232 208.368C146.217 213.643 146.176 218.717 147.11 223.592C148.06 228.387 149.884 232.862 152.584 237.018C155.284 241.173 158.801 244.889 163.135 248.166C167.468 251.442 172.553 254.199 178.389 256.437C171.361 255.318 165.276 253.32 160.133 250.443C155.087 247.486 151.058 243.89 148.048 239.655C145.038 235.419 143.023 230.664 142.004 225.39C141.081 220.036 141.196 214.362 142.349 208.368ZM323.716 267.201H346.655L362.014 187.367H337.756L340.413 173.557H409.759C416.497 173.557 422.54 173.672 427.886 173.903C433.291 174.133 438.113 174.651 442.353 175.456C447.321 176.434 451.444 177.844 454.723 179.685C458.012 181.469 460.521 183.655 462.25 186.245C464.037 188.834 465.113 191.768 465.478 195.048C465.902 198.328 465.737 201.924 464.984 205.836C464.364 209.059 463.17 212.223 461.4 215.33C459.689 218.437 457.454 221.372 454.697 224.134C451.95 226.838 448.667 229.283 444.848 231.47C441.087 233.656 436.848 235.44 432.129 236.821C427.117 238.202 421.672 239.094 415.794 239.497C409.985 239.842 403.712 240.014 396.973 240.014H371.837L366.606 267.201H397.895L395.238 281.011H321.059L323.716 267.201ZM376.827 246.056H390.889C396.045 246.056 400.504 246.027 404.265 245.97C408.026 245.912 411.388 245.797 414.351 245.624C417.384 245.394 420.105 245.107 422.515 244.761C424.995 244.359 427.491 243.869 430.004 243.294C435.639 242.028 440.786 240.245 445.448 237.943C450.121 235.584 454.202 232.793 457.693 229.571C461.254 226.291 464.189 222.609 466.499 218.524C468.819 214.381 470.444 209.893 471.374 205.06C472.514 199.133 472.322 194.041 470.797 189.783C469.342 185.468 466.486 181.584 462.228 178.132C464.973 179.397 467.294 181.037 469.192 183.051C471.101 185.008 472.585 187.194 473.643 189.611C474.702 192.027 475.357 194.559 475.61 197.206C475.862 199.852 475.739 202.47 475.241 205.06C474.256 210.181 472.482 214.985 469.919 219.473C467.357 223.961 464.086 228.018 460.107 231.643C456.187 235.267 451.57 238.403 446.256 241.05C441.012 243.639 435.157 245.596 428.692 246.919C426.739 247.322 424.558 247.696 422.148 248.041C419.749 248.329 417.004 248.588 413.912 248.818C410.832 248.99 407.348 249.134 403.458 249.249C399.58 249.307 395.18 249.336 390.258 249.336H379.711L377.27 262.023H373.755L376.827 246.056ZM403.409 226.205C408.39 226.205 412.748 226.09 416.484 225.86C420.219 225.63 423.571 225.112 426.538 224.306C431.843 222.925 435.75 220.739 438.259 217.747C440.827 214.755 442.543 211.015 443.406 206.527C444.07 203.075 443.99 200.14 443.166 197.724C442.342 195.307 440.644 193.322 438.072 191.768C435.5 190.215 431.965 189.093 427.469 188.402C423.032 187.712 417.503 187.367 410.881 187.367H381.965L374.493 226.205H403.409ZM386.955 193.408H409.104C418.069 193.408 424.801 193.897 429.3 194.875C433.858 195.854 436.637 197.551 437.637 199.968C436.565 199.45 435.247 198.989 433.684 198.587C432.179 198.184 430.283 197.839 427.994 197.551C425.706 197.263 422.962 197.062 419.761 196.947C416.63 196.774 412.867 196.688 408.473 196.688H389.84L385.158 221.027H381.642L386.955 193.408ZM341.34 193.408H355.315L354.684 196.688H340.709L341.34 193.408ZM400.404 287.052L403.293 272.035H406.809L403.289 290.332H324.89L325.521 287.052H400.404ZM493.98 237.857H519.005C527.983 247.446 538.186 254.479 549.614 258.954C561.057 263.349 573.492 265.547 586.92 265.547C592.779 265.547 598.258 264.988 603.356 263.869C608.454 262.75 612.978 261.232 616.927 259.314C620.892 257.316 624.105 254.998 626.566 252.361C629.108 249.724 630.671 246.887 631.255 243.85C631.931 240.334 631.415 237.098 629.705 234.141C627.995 231.184 624.848 228.507 620.264 226.109C615.761 223.712 609.732 221.634 602.176 219.876C594.702 218.118 585.538 216.679 574.686 215.56C562.074 214.282 551.528 212.204 543.048 209.327C534.584 206.37 527.862 202.814 522.884 198.659C517.987 194.503 514.687 189.868 512.986 184.753C511.366 179.639 511.101 174.245 512.193 168.571C513.208 163.296 515.73 158.222 519.76 153.347C523.806 148.392 529.242 144.037 536.068 140.281C542.91 136.445 551.111 133.368 560.671 131.051C570.232 128.733 581.034 127.574 593.078 127.574C600.077 127.574 606.358 128.134 611.92 129.253C617.58 130.292 622.674 131.73 627.203 133.568C631.814 135.406 635.948 137.604 639.607 140.161C643.281 142.638 646.672 145.315 649.78 148.192L652.94 131.77H680.406L672.103 174.924H644.638C642.965 170.928 640.506 167.212 637.261 163.776C634.016 160.339 630.068 157.383 625.418 154.905C620.864 152.348 615.715 150.35 609.969 148.912C604.224 147.473 598.055 146.754 591.463 146.754C584.546 146.754 578.32 147.393 572.784 148.672C567.345 149.871 562.643 151.469 558.678 153.467C554.809 155.385 551.75 157.542 549.498 159.94C547.246 162.337 545.898 164.695 545.452 167.012C544.883 169.969 545.11 172.806 546.134 175.523C547.254 178.16 549.585 180.638 553.127 182.955C556.765 185.193 561.866 187.231 568.43 189.069C575.009 190.827 583.506 192.345 593.921 193.624C608.541 195.462 620.628 197.779 630.181 200.576C639.734 203.374 647.178 206.77 652.513 210.766C657.863 214.681 661.333 219.277 662.922 224.551C664.527 229.745 664.699 235.619 663.438 242.172C662.485 247.127 660.14 252.121 656.405 257.156C652.751 262.191 647.724 266.746 641.325 270.822C635.007 274.897 627.329 278.214 618.292 280.771C609.255 283.328 598.959 284.607 587.403 284.607C580.16 284.607 573.294 284.127 566.806 283.168C560.383 282.289 554.248 280.971 548.402 279.213C542.652 277.375 537.142 275.137 531.871 272.5C526.6 269.863 521.496 266.786 516.557 263.27L513.144 281.011H485.678L493.98 237.857ZM650.347 183.315H679.278L688.019 137.883H693.146L683.529 187.87H649.471L650.347 183.315ZM555.722 166.293C556.045 164.615 557.191 163.096 559.162 161.738C561.213 160.379 563.878 159.221 567.155 158.262C570.432 157.303 574.199 156.543 578.457 155.984C582.797 155.425 587.408 155.145 592.29 155.145C599.696 155.145 606.309 156.304 612.13 158.621C618.047 160.859 622.735 163.776 626.193 167.372C624.099 166.413 621.712 165.494 619.033 164.615C616.369 163.656 613.52 162.817 610.484 162.098C607.545 161.298 604.446 160.699 601.187 160.299C598.024 159.82 594.855 159.58 591.681 159.58C582.811 159.58 575.348 160.299 569.294 161.738C563.336 163.096 558.812 164.615 555.722 166.293ZM510.198 197.34C512.288 200.856 514.896 204.013 518.02 206.81C521.225 209.607 525.224 212.084 530.018 214.242C534.892 216.4 540.675 218.278 547.366 219.876C554.139 221.474 562.145 222.793 571.386 223.832C580.382 224.871 588.027 225.949 594.322 227.068C600.699 228.187 605.913 229.426 609.965 230.784C614.032 232.063 617.044 233.541 618.999 235.22C621.036 236.898 622.247 238.856 622.63 241.093C620.531 239.735 618.239 238.536 615.754 237.497C613.365 236.378 610.187 235.339 606.221 234.38C602.271 233.342 597.255 232.343 591.173 231.384C585.091 230.425 577.397 229.386 568.091 228.267C558.312 227.068 549.756 225.43 542.425 223.352C535.175 221.274 529.118 218.917 524.254 216.28C519.487 213.563 515.906 210.606 513.51 207.409C511.211 204.133 510.107 200.776 510.198 197.34ZM520.318 289.402L522.602 277.534C531.399 282.569 540.874 286.405 551.027 289.042C561.181 291.679 572.727 292.998 585.667 292.998C595.514 292.998 605.235 291.959 614.831 289.881C624.426 287.803 633.205 284.687 641.166 280.531C649.127 276.376 655.871 271.141 661.399 264.828C666.926 258.515 670.505 251.123 672.135 242.652C673.119 237.537 673.441 232.902 673.101 228.746C672.858 224.511 671.516 220.275 669.076 216.04C670.768 217.399 672.195 219.077 673.356 221.075C674.615 222.993 675.583 225.15 676.261 227.548C676.955 229.865 677.373 232.343 677.517 234.98C677.676 237.537 677.51 240.094 677.018 242.652C675.327 251.442 671.671 259.234 666.051 266.027C660.512 272.819 653.594 278.533 645.297 283.168C636.984 287.883 627.633 291.439 617.243 293.837C606.838 296.314 595.98 297.553 584.668 297.553C571.973 297.553 560.828 296.474 551.233 294.316C541.72 292.159 533.385 289.162 526.23 285.326L524.569 293.957H490.511L491.388 289.402H520.318Z" fill="black"/>
<path d="M32.9297 33.875H38.2227V15.8086H32.9297V12.6836H47.5391C49.2708 12.6836 50.7943 12.7292 52.1094 12.8203C53.4245 12.8984 54.6159 13.0807 55.6836 13.3672C58.4831 14.1354 60.5794 15.457 61.9727 17.332C63.3659 19.207 64.0625 21.707 64.0625 24.832C64.0625 26.2643 63.8932 27.5924 63.5547 28.8164C63.2292 30.0273 62.7214 31.1211 62.0312 32.0977C61.3542 33.0612 60.4948 33.888 59.4531 34.5781C58.4245 35.2682 57.207 35.8021 55.8008 36.1797C54.7461 36.4661 53.5482 36.6745 52.207 36.8047C50.8789 36.9349 49.388 37 47.7344 37H32.9297V33.875ZM47.1094 38.3672C48.0208 38.3672 48.9193 38.3411 49.8047 38.2891C50.6901 38.25 51.5299 38.1914 52.3242 38.1133C53.1185 38.0352 53.8477 37.9375 54.5117 37.8203C55.1888 37.7161 55.7747 37.599 56.2695 37.4688C57.6758 37.1042 58.9453 36.5508 60.0781 35.8086C61.224 35.0534 62.194 34.1419 62.9883 33.0742C63.7826 31.9935 64.3945 30.763 64.8242 29.3828C65.2539 27.9896 65.4688 26.4727 65.4688 24.832C65.4688 23.6211 65.3581 22.5273 65.1367 21.5508C64.9154 20.5612 64.5898 19.6628 64.1602 18.8555C63.7305 18.0352 63.1966 17.2865 62.5586 16.6094C61.9336 15.9323 61.2109 15.2943 60.3906 14.6953C61.3411 15.1771 62.181 15.737 62.9102 16.375C63.6393 17.013 64.2513 17.7487 64.7461 18.582C65.2409 19.4154 65.6185 20.3529 65.8789 21.3945C66.1393 22.4232 66.2695 23.569 66.2695 24.832C66.2695 26.5117 66.0482 28.0807 65.6055 29.5391C65.1758 30.9844 64.5443 32.2865 63.7109 33.4453C62.8776 34.5911 61.849 35.5677 60.625 36.375C59.401 37.1823 58.0013 37.7878 56.4258 38.1914C55.319 38.4648 53.9974 38.6862 52.4609 38.8555C50.9245 39.0247 49.1406 39.1094 47.1094 39.1094H34.1797V38.3672H47.1094ZM48.6719 33.875C50.599 33.875 52.2266 33.7057 53.5547 33.3672C54.8828 33.0286 55.957 32.5078 56.7773 31.8047C57.5977 31.1016 58.1901 30.2031 58.5547 29.1094C58.9193 28.0156 59.1016 26.707 59.1016 25.1836V24.4609C59.1016 22.9766 58.9128 21.694 58.5352 20.6133C58.1706 19.5326 57.5716 18.6341 56.7383 17.918C55.9049 17.2018 54.8112 16.6745 53.457 16.3359C52.1159 15.9844 50.4622 15.8086 48.4961 15.8086H42.6172V33.875H48.6719ZM43.9844 17.1758H48.125C49.4271 17.1758 50.5273 17.2279 51.4258 17.332C52.3242 17.4232 53.0859 17.5729 53.7109 17.7812C54.349 17.9766 54.8958 18.237 55.3516 18.5625C55.8203 18.888 56.276 19.2786 56.7188 19.7344C56.237 19.4349 55.7292 19.1745 55.1953 18.9531C54.6745 18.7188 54.082 18.5299 53.418 18.3867C52.7539 18.2305 51.9922 18.1133 51.1328 18.0352C50.2734 17.957 49.2708 17.918 48.125 17.918H44.7656V32.7031H43.9844V17.1758ZM34.1016 17.1758H37.4023V17.918H34.1016V17.1758ZM70.6445 27.9375C70.6445 26.5573 70.8984 25.2422 71.4062 23.9922C71.9141 22.7422 72.6758 21.6419 73.6914 20.6914C74.707 19.7409 75.9701 18.9857 77.4805 18.4258C78.9909 17.8529 80.7422 17.5664 82.7344 17.5664C84.6094 17.5664 86.2826 17.8203 87.7539 18.3281C89.2253 18.8229 90.4753 19.5456 91.5039 20.4961C92.5326 21.4466 93.3138 22.612 93.8477 23.9922C94.3945 25.3594 94.668 26.9219 94.668 28.6797H74.9219C75.0391 29.6172 75.3385 30.4505 75.8203 31.1797C76.3151 31.9089 76.9401 32.5273 77.6953 33.0352C78.4505 33.5299 79.3034 33.9076 80.2539 34.168C81.2174 34.4284 82.2201 34.5586 83.2617 34.5586C84.1081 34.5586 84.9674 34.4935 85.8398 34.3633C86.7253 34.2201 87.5586 34.0312 88.3398 33.7969C89.1211 33.5625 89.8177 33.3021 90.4297 33.0156C91.0417 32.7161 91.5104 32.4102 91.8359 32.0977H92.5781L94.4141 34.0898C93.0729 35.2357 91.4388 36.1081 89.5117 36.707C87.5977 37.293 85.4818 37.5859 83.1641 37.5859C81.1458 37.5859 79.3555 37.3385 77.793 36.8438C76.2435 36.349 74.9349 35.6654 73.8672 34.793C72.8125 33.9206 72.0117 32.8984 71.4648 31.7266C70.918 30.5547 70.6445 29.2917 70.6445 27.9375ZM95.9961 30.0469C96.0221 29.8516 96.0417 29.6432 96.0547 29.4219C96.0677 29.1875 96.0742 28.9401 96.0742 28.6797C96.0742 27.5729 95.957 26.5182 95.7227 25.5156C95.5013 24.5 95.1693 23.5625 94.7266 22.7031C94.2969 21.8307 93.763 21.0365 93.125 20.3203C92.487 19.6042 91.7643 18.9922 90.957 18.4844C91.8164 18.8229 92.6042 19.2917 93.3203 19.8906C94.0495 20.4766 94.6745 21.1927 95.1953 22.0391C95.7161 22.8854 96.1198 23.862 96.4062 24.9688C96.7057 26.0755 96.8555 27.3125 96.8555 28.6797C96.8555 28.7839 96.849 28.9141 96.8359 29.0703C96.8359 29.2266 96.8294 29.4023 96.8164 29.5977C96.8034 29.793 96.7839 29.9948 96.7578 30.2031C96.7448 30.3984 96.7253 30.5938 96.6992 30.7891H78.2422C78.4896 31.2057 78.9453 31.6354 79.6094 32.0781C80.2734 32.5078 81.1328 32.8724 82.1875 33.1719C81.5365 33.1719 80.9245 33.0938 80.3516 32.9375C79.7917 32.7812 79.2773 32.5664 78.8086 32.293C78.3529 32.0195 77.9492 31.694 77.5977 31.3164C77.2591 30.9258 76.9922 30.5026 76.7969 30.0469H95.9961ZM90.1562 26.2383C89.9479 25.3398 89.6224 24.5391 89.1797 23.8359C88.75 23.1328 88.2161 22.5469 87.5781 22.0781C86.9401 21.5964 86.2109 21.2318 85.3906 20.9844C84.5703 20.724 83.6719 20.5938 82.6953 20.5938C81.6406 20.5938 80.6771 20.737 79.8047 21.0234C78.9453 21.2969 78.1901 21.6875 77.5391 22.1953C76.888 22.6901 76.3477 23.2826 75.918 23.9727C75.5013 24.6628 75.2083 25.418 75.0391 26.2383H90.1562ZM76.8164 25.3984C77.2982 24.3307 78.0534 23.4909 79.082 22.8789C80.1237 22.2669 81.3281 21.9609 82.6953 21.9609C83.2552 21.9609 83.7956 22.0065 84.3164 22.0977C84.8503 22.1888 85.3385 22.332 85.7812 22.5273C86.237 22.7096 86.6341 22.9375 86.9727 23.2109C87.3112 23.4844 87.5781 23.7969 87.7734 24.1484C87.0312 23.6536 86.237 23.2891 85.3906 23.0547C84.5443 22.8203 83.6328 22.7031 82.6562 22.7031C81.5234 22.7031 80.5273 22.9375 79.668 23.4062C78.8086 23.875 78.1576 24.5391 77.7148 25.3984H76.8164ZM73.0078 36.1406C74.2708 37.0391 75.7357 37.7357 77.4023 38.2305C79.082 38.7253 81.0026 38.9727 83.1641 38.9727C85.2734 38.9727 87.2461 38.7318 89.082 38.25C90.931 37.7682 92.5977 37.0326 94.082 36.043L94.6094 36.6094C92.9297 37.7422 91.1589 38.543 89.2969 39.0117C87.4479 39.4805 85.5078 39.7148 83.4766 39.7148C80.8333 39.7148 78.6393 39.3958 76.8945 38.7578C75.1628 38.1198 73.8672 37.2474 73.0078 36.1406ZM103.906 21.082H99.6875V18.1523H113.086V21.082H108.887L116.328 33.7969L123.496 21.082H119.023V18.1523H132.031V21.082H128.008L118.574 37H113.496L103.906 21.082ZM119.512 38.3672L128.945 22.4492H133.438V19.2461H134.219V23.1914H129.453L120.02 39.1094H115.156L114.863 38.3672H119.512ZM111.543 22.4492H114.863L114.492 19.2461H115.273V23.1914H112.91L117.07 30.6719L116.621 31.4141L111.543 22.4492ZM119.98 22.4492H121.738L121.289 23.1914H119.98V22.4492ZM100.859 22.4492H103.691L104.141 23.1914H100.859V22.4492ZM136.855 27.9375C136.855 26.5573 137.109 25.2422 137.617 23.9922C138.125 22.7422 138.887 21.6419 139.902 20.6914C140.918 19.7409 142.181 18.9857 143.691 18.4258C145.202 17.8529 146.953 17.5664 148.945 17.5664C150.82 17.5664 152.493 17.8203 153.965 18.3281C155.436 18.8229 156.686 19.5456 157.715 20.4961C158.743 21.4466 159.525 22.612 160.059 23.9922C160.605 25.3594 160.879 26.9219 160.879 28.6797H141.133C141.25 29.6172 141.549 30.4505 142.031 31.1797C142.526 31.9089 143.151 32.5273 143.906 33.0352C144.661 33.5299 145.514 33.9076 146.465 34.168C147.428 34.4284 148.431 34.5586 149.473 34.5586C150.319 34.5586 151.178 34.4935 152.051 34.3633C152.936 34.2201 153.77 34.0312 154.551 33.7969C155.332 33.5625 156.029 33.3021 156.641 33.0156C157.253 32.7161 157.721 32.4102 158.047 32.0977H158.789L160.625 34.0898C159.284 35.2357 157.65 36.1081 155.723 36.707C153.809 37.293 151.693 37.5859 149.375 37.5859C147.357 37.5859 145.566 37.3385 144.004 36.8438C142.454 36.349 141.146 35.6654 140.078 34.793C139.023 33.9206 138.223 32.8984 137.676 31.7266C137.129 30.5547 136.855 29.2917 136.855 27.9375ZM162.207 30.0469C162.233 29.8516 162.253 29.6432 162.266 29.4219C162.279 29.1875 162.285 28.9401 162.285 28.6797C162.285 27.5729 162.168 26.5182 161.934 25.5156C161.712 24.5 161.38 23.5625 160.938 22.7031C160.508 21.8307 159.974 21.0365 159.336 20.3203C158.698 19.6042 157.975 18.9922 157.168 18.4844C158.027 18.8229 158.815 19.2917 159.531 19.8906C160.26 20.4766 160.885 21.1927 161.406 22.0391C161.927 22.8854 162.331 23.862 162.617 24.9688C162.917 26.0755 163.066 27.3125 163.066 28.6797C163.066 28.7839 163.06 28.9141 163.047 29.0703C163.047 29.2266 163.04 29.4023 163.027 29.5977C163.014 29.793 162.995 29.9948 162.969 30.2031C162.956 30.3984 162.936 30.5938 162.91 30.7891H144.453C144.701 31.2057 145.156 31.6354 145.82 32.0781C146.484 32.5078 147.344 32.8724 148.398 33.1719C147.747 33.1719 147.135 33.0938 146.562 32.9375C146.003 32.7812 145.488 32.5664 145.02 32.293C144.564 32.0195 144.16 31.694 143.809 31.3164C143.47 30.9258 143.203 30.5026 143.008 30.0469H162.207ZM156.367 26.2383C156.159 25.3398 155.833 24.5391 155.391 23.8359C154.961 23.1328 154.427 22.5469 153.789 22.0781C153.151 21.5964 152.422 21.2318 151.602 20.9844C150.781 20.724 149.883 20.5938 148.906 20.5938C147.852 20.5938 146.888 20.737 146.016 21.0234C145.156 21.2969 144.401 21.6875 143.75 22.1953C143.099 22.6901 142.559 23.2826 142.129 23.9727C141.712 24.6628 141.419 25.418 141.25 26.2383H156.367ZM143.027 25.3984C143.509 24.3307 144.264 23.4909 145.293 22.8789C146.335 22.2669 147.539 21.9609 148.906 21.9609C149.466 21.9609 150.007 22.0065 150.527 22.0977C151.061 22.1888 151.549 22.332 151.992 22.5273C152.448 22.7096 152.845 22.9375 153.184 23.2109C153.522 23.4844 153.789 23.7969 153.984 24.1484C153.242 23.6536 152.448 23.2891 151.602 23.0547C150.755 22.8203 149.844 22.7031 148.867 22.7031C147.734 22.7031 146.738 22.9375 145.879 23.4062C145.02 23.875 144.368 24.5391 143.926 25.3984H143.027ZM139.219 36.1406C140.482 37.0391 141.947 37.7357 143.613 38.2305C145.293 38.7253 147.214 38.9727 149.375 38.9727C151.484 38.9727 153.457 38.7318 155.293 38.25C157.142 37.7682 158.809 37.0326 160.293 36.043L160.82 36.6094C159.141 37.7422 157.37 38.543 155.508 39.0117C153.659 39.4805 151.719 39.7148 149.688 39.7148C147.044 39.7148 144.85 39.3958 143.105 38.7578C141.374 38.1198 140.078 37.2474 139.219 36.1406ZM167.461 34.0703H171.758V12.6836H167.461V9.75391H175.957V34.0703H180.254V37H167.461V34.0703ZM177.324 10.75H178.105V32.8984H177.324V10.75ZM168.633 14.0508H170.938V14.793H168.633V14.0508ZM181.66 38.3672V35.1641H182.441V39.1094H168.633V38.3672H181.66ZM186.074 27.8789C186.074 26.4596 186.38 25.125 186.992 23.875C187.604 22.612 188.457 21.5182 189.551 20.5938C190.658 19.6562 191.979 18.9206 193.516 18.3867C195.052 17.8398 196.738 17.5664 198.574 17.5664C200.501 17.5664 202.22 17.8268 203.73 18.3477C205.254 18.8555 206.536 19.5651 207.578 20.4766C208.633 21.388 209.434 22.4688 209.98 23.7188C210.54 24.9688 210.82 26.3294 210.82 27.8008C210.82 29.2201 210.514 30.5286 209.902 31.7266C209.303 32.9245 208.444 33.9596 207.324 34.832C206.217 35.6914 204.883 36.3685 203.32 36.8633C201.771 37.3451 200.039 37.5859 198.125 37.5859C196.315 37.5859 194.668 37.319 193.184 36.7852C191.712 36.2383 190.449 35.5156 189.395 34.6172C188.34 33.7188 187.52 32.6901 186.934 31.5312C186.361 30.3594 186.074 29.1419 186.074 27.8789ZM189.141 36.1016C190.404 37.013 191.797 37.7161 193.32 38.2109C194.857 38.7057 196.589 38.9531 198.516 38.9531C200.312 38.9531 202.038 38.7057 203.691 38.2109C205.345 37.7292 206.803 37.013 208.066 36.0625C209.329 35.112 210.339 33.9466 211.094 32.5664C211.849 31.1732 212.227 29.5846 212.227 27.8008C212.227 26.9284 212.103 26.0495 211.855 25.1641C211.621 24.2656 211.283 23.4062 210.84 22.5859C210.41 21.7656 209.883 21.0039 209.258 20.3008C208.633 19.5846 207.936 18.9792 207.168 18.4844C208.04 18.875 208.835 19.3893 209.551 20.0273C210.28 20.6654 210.898 21.3945 211.406 22.2148C211.914 23.0221 212.305 23.901 212.578 24.8516C212.865 25.8021 213.008 26.7852 213.008 27.8008C213.008 29.0768 212.826 30.2617 212.461 31.3555C212.096 32.4362 211.589 33.4193 210.938 34.3047C210.299 35.1771 209.531 35.9518 208.633 36.6289C207.747 37.306 206.771 37.8659 205.703 38.3086C204.635 38.7643 203.496 39.1094 202.285 39.3438C201.087 39.5781 199.863 39.6953 198.613 39.6953C197.572 39.6953 196.576 39.6107 195.625 39.4414C194.674 39.2852 193.789 39.0508 192.969 38.7383C192.161 38.4388 191.432 38.0677 190.781 37.625C190.13 37.1823 189.583 36.6745 189.141 36.1016ZM190.41 27.8008C190.41 28.8034 190.599 29.7214 190.977 30.5547C191.367 31.375 191.914 32.0846 192.617 32.6836C193.32 33.2695 194.16 33.7253 195.137 34.0508C196.126 34.3763 197.22 34.5391 198.418 34.5391C199.629 34.5391 200.729 34.3763 201.719 34.0508C202.708 33.7122 203.561 33.25 204.277 32.6641C204.993 32.0651 205.547 31.3555 205.938 30.5352C206.328 29.7018 206.523 28.7904 206.523 27.8008C206.523 26.8242 206.328 25.9062 205.938 25.0469C205.547 24.1745 205 23.4128 204.297 22.7617C203.594 22.0977 202.747 21.5768 201.758 21.1992C200.781 20.8086 199.701 20.6133 198.516 20.6133C197.279 20.6133 196.159 20.8021 195.156 21.1797C194.167 21.5443 193.32 22.0521 192.617 22.7031C191.914 23.3411 191.367 24.0964 190.977 24.9688C190.599 25.8411 190.41 26.7852 190.41 27.8008ZM191.777 27.8789C191.777 27.0586 191.94 26.2904 192.266 25.5742C192.591 24.8451 193.047 24.2201 193.633 23.6992C194.232 23.1654 194.941 22.7487 195.762 22.4492C196.595 22.1367 197.513 21.9805 198.516 21.9805C199.154 21.9805 199.772 22.0521 200.371 22.1953C200.97 22.3255 201.523 22.5208 202.031 22.7812C202.539 23.0417 202.988 23.3607 203.379 23.7383C203.77 24.1029 204.082 24.5195 204.316 24.9883C203.457 24.207 202.559 23.6341 201.621 23.2695C200.697 22.9049 199.648 22.7227 198.477 22.7227C197.63 22.7227 196.849 22.8594 196.133 23.1328C195.417 23.4062 194.792 23.7773 194.258 24.2461C193.724 24.7148 193.307 25.2617 193.008 25.8867C192.708 26.5117 192.559 27.1758 192.559 27.8789C192.559 28.4648 192.63 29.0117 192.773 29.5195C192.917 30.0273 193.158 30.5026 193.496 30.9453C193.848 31.375 194.31 31.7656 194.883 32.1172C195.456 32.4688 196.172 32.7812 197.031 33.0547C196.25 33.0026 195.534 32.8398 194.883 32.5664C194.245 32.2799 193.691 31.9089 193.223 31.4531C192.767 30.9974 192.409 30.4635 192.148 29.8516C191.901 29.2396 191.777 28.582 191.777 27.8789ZM221.816 43.2891V21.4727H217.52V18.1523H226.016V20.75C226.992 19.7604 228.177 18.9857 229.57 18.4258C230.964 17.8529 232.48 17.5664 234.121 17.5664C235.918 17.5664 237.513 17.8398 238.906 18.3867C240.299 18.9206 241.471 19.6367 242.422 20.5352C243.372 21.4206 244.095 22.4362 244.59 23.582C245.085 24.7279 245.332 25.9128 245.332 27.1367C245.332 28.7253 245.059 30.1445 244.512 31.3945C243.978 32.6315 243.223 33.6797 242.246 34.5391C241.27 35.3984 240.104 36.056 238.75 36.5117C237.396 36.9674 235.898 37.1953 234.258 37.1953C232.565 37.1953 231.009 36.9414 229.59 36.4336C228.184 35.9128 226.992 35.1641 226.016 34.1875V43.2891H231.289V46.2188H218.496V43.2891H221.816ZM227.324 36.9609C228.262 37.4818 229.342 37.8789 230.566 38.1523C231.803 38.4258 233.047 38.5625 234.297 38.5625C236.016 38.5625 237.63 38.3151 239.141 37.8203C240.651 37.3385 241.966 36.6224 243.086 35.6719C244.219 34.7083 245.111 33.5169 245.762 32.0977C246.413 30.6654 246.738 29.0117 246.738 27.1367C246.738 26.3294 246.621 25.5026 246.387 24.6562C246.152 23.7969 245.82 22.9701 245.391 22.1758C244.961 21.3685 244.434 20.6133 243.809 19.9102C243.184 19.207 242.48 18.6016 241.699 18.0938C242.676 18.5365 243.529 19.1094 244.258 19.8125C245 20.5026 245.612 21.2578 246.094 22.0781C246.589 22.8984 246.96 23.7513 247.207 24.6367C247.454 25.5091 247.578 26.3424 247.578 27.1367C247.578 28.9727 247.272 30.6393 246.66 32.1367C246.048 33.6341 245.163 34.9167 244.004 35.9844C242.858 37.0391 241.458 37.8529 239.805 38.4258C238.164 39.0117 236.309 39.3047 234.238 39.3047C233.717 39.3047 233.184 39.2721 232.637 39.207C232.09 39.1549 231.549 39.0768 231.016 38.9727C230.482 38.8685 229.961 38.7448 229.453 38.6016C228.958 38.4583 228.509 38.2956 228.105 38.1133V42.3125H227.324V36.9609ZM226.016 27.5273C226.016 28.569 226.23 29.5 226.66 30.3203C227.103 31.1406 227.702 31.8372 228.457 32.4102C229.212 32.9831 230.091 33.4258 231.094 33.7383C232.109 34.0378 233.197 34.1875 234.355 34.1875C235.384 34.1875 236.309 34.0247 237.129 33.6992C237.962 33.3737 238.672 32.9115 239.258 32.3125C239.844 31.7135 240.293 30.9909 240.605 30.1445C240.931 29.2852 241.094 28.3346 241.094 27.293C241.094 26.3034 240.905 25.3984 240.527 24.5781C240.163 23.7448 239.655 23.0352 239.004 22.4492C238.353 21.8633 237.585 21.4076 236.699 21.082C235.827 20.7565 234.883 20.5938 233.867 20.5938C232.76 20.5938 231.725 20.7565 230.762 21.082C229.811 21.4076 228.984 21.8763 228.281 22.4883C227.578 23.0872 227.025 23.8164 226.621 24.6758C226.217 25.5221 226.016 26.4727 226.016 27.5273ZM227.422 27.5078C227.422 26.7656 227.572 26.056 227.871 25.3789C228.184 24.7018 228.62 24.1094 229.18 23.6016C229.74 23.0938 230.41 22.6901 231.191 22.3906C231.973 22.0911 232.845 21.9414 233.809 21.9414C234.837 21.9414 235.749 22.1237 236.543 22.4883C237.337 22.8398 237.943 23.3086 238.359 23.8945C237.578 23.3997 236.81 23.0807 236.055 22.9375C235.312 22.7812 234.564 22.7031 233.809 22.7031C232.962 22.7031 232.194 22.8398 231.504 23.1133C230.827 23.3737 230.241 23.7253 229.746 24.168C229.264 24.5977 228.893 25.099 228.633 25.6719C228.372 26.2448 228.242 26.8372 228.242 27.4492C228.242 28.6341 228.542 29.6562 229.141 30.5156C229.74 31.375 230.71 32.1172 232.051 32.7422C231.361 32.599 230.729 32.3776 230.156 32.0781C229.596 31.7656 229.108 31.388 228.691 30.9453C228.288 30.4896 227.975 29.9753 227.754 29.4023C227.533 28.8294 227.422 28.1979 227.422 27.5078ZM218.691 22.8398H220.996V23.582H218.691V22.8398ZM232.695 47.5859V44.3828H233.477V48.3281H219.668V47.5859H232.695ZM251.738 27.9375C251.738 26.5573 251.992 25.2422 252.5 23.9922C253.008 22.7422 253.77 21.6419 254.785 20.6914C255.801 19.7409 257.064 18.9857 258.574 18.4258C260.085 17.8529 261.836 17.5664 263.828 17.5664C265.703 17.5664 267.376 17.8203 268.848 18.3281C270.319 18.8229 271.569 19.5456 272.598 20.4961C273.626 21.4466 274.408 22.612 274.941 23.9922C275.488 25.3594 275.762 26.9219 275.762 28.6797H256.016C256.133 29.6172 256.432 30.4505 256.914 31.1797C257.409 31.9089 258.034 32.5273 258.789 33.0352C259.544 33.5299 260.397 33.9076 261.348 34.168C262.311 34.4284 263.314 34.5586 264.355 34.5586C265.202 34.5586 266.061 34.4935 266.934 34.3633C267.819 34.2201 268.652 34.0312 269.434 33.7969C270.215 33.5625 270.911 33.3021 271.523 33.0156C272.135 32.7161 272.604 32.4102 272.93 32.0977H273.672L275.508 34.0898C274.167 35.2357 272.533 36.1081 270.605 36.707C268.691 37.293 266.576 37.5859 264.258 37.5859C262.24 37.5859 260.449 37.3385 258.887 36.8438C257.337 36.349 256.029 35.6654 254.961 34.793C253.906 33.9206 253.105 32.8984 252.559 31.7266C252.012 30.5547 251.738 29.2917 251.738 27.9375ZM277.09 30.0469C277.116 29.8516 277.135 29.6432 277.148 29.4219C277.161 29.1875 277.168 28.9401 277.168 28.6797C277.168 27.5729 277.051 26.5182 276.816 25.5156C276.595 24.5 276.263 23.5625 275.82 22.7031C275.391 21.8307 274.857 21.0365 274.219 20.3203C273.581 19.6042 272.858 18.9922 272.051 18.4844C272.91 18.8229 273.698 19.2917 274.414 19.8906C275.143 20.4766 275.768 21.1927 276.289 22.0391C276.81 22.8854 277.214 23.862 277.5 24.9688C277.799 26.0755 277.949 27.3125 277.949 28.6797C277.949 28.7839 277.943 28.9141 277.93 29.0703C277.93 29.2266 277.923 29.4023 277.91 29.5977C277.897 29.793 277.878 29.9948 277.852 30.2031C277.839 30.3984 277.819 30.5938 277.793 30.7891H259.336C259.583 31.2057 260.039 31.6354 260.703 32.0781C261.367 32.5078 262.227 32.8724 263.281 33.1719C262.63 33.1719 262.018 33.0938 261.445 32.9375C260.885 32.7812 260.371 32.5664 259.902 32.293C259.447 32.0195 259.043 31.694 258.691 31.3164C258.353 30.9258 258.086 30.5026 257.891 30.0469H277.09ZM271.25 26.2383C271.042 25.3398 270.716 24.5391 270.273 23.8359C269.844 23.1328 269.31 22.5469 268.672 22.0781C268.034 21.5964 267.305 21.2318 266.484 20.9844C265.664 20.724 264.766 20.5938 263.789 20.5938C262.734 20.5938 261.771 20.737 260.898 21.0234C260.039 21.2969 259.284 21.6875 258.633 22.1953C257.982 22.6901 257.441 23.2826 257.012 23.9727C256.595 24.6628 256.302 25.418 256.133 26.2383H271.25ZM257.91 25.3984C258.392 24.3307 259.147 23.4909 260.176 22.8789C261.217 22.2669 262.422 21.9609 263.789 21.9609C264.349 21.9609 264.889 22.0065 265.41 22.0977C265.944 22.1888 266.432 22.332 266.875 22.5273C267.331 22.7096 267.728 22.9375 268.066 23.2109C268.405 23.4844 268.672 23.7969 268.867 24.1484C268.125 23.6536 267.331 23.2891 266.484 23.0547C265.638 22.8203 264.727 22.7031 263.75 22.7031C262.617 22.7031 261.621 22.9375 260.762 23.4062C259.902 23.875 259.251 24.5391 258.809 25.3984H257.91ZM254.102 36.1406C255.365 37.0391 256.829 37.7357 258.496 38.2305C260.176 38.7253 262.096 38.9727 264.258 38.9727C266.367 38.9727 268.34 38.7318 270.176 38.25C272.025 37.7682 273.691 37.0326 275.176 36.043L275.703 36.6094C274.023 37.7422 272.253 38.543 270.391 39.0117C268.542 39.4805 266.602 39.7148 264.57 39.7148C261.927 39.7148 259.733 39.3958 257.988 38.7578C256.257 38.1198 254.961 37.2474 254.102 36.1406ZM282.832 34.0703H287.129V21.4727H282.832V18.1523H291.328V21.4141C291.732 20.8932 292.214 20.3984 292.773 19.9297C293.346 19.4609 293.991 19.0508 294.707 18.6992C295.423 18.3477 296.204 18.0742 297.051 17.8789C297.897 17.6706 298.802 17.5664 299.766 17.5664C300.052 17.5664 300.41 17.5794 300.84 17.6055C301.27 17.6185 301.68 17.6576 302.07 17.7227V21.5508C301.615 21.4466 301.165 21.375 300.723 21.3359C300.28 21.2969 299.85 21.2773 299.434 21.2773C298.392 21.2773 297.402 21.4466 296.465 21.7852C295.54 22.1107 294.714 22.5924 293.984 23.2305C293.255 23.8555 292.656 24.6237 292.188 25.5352C291.719 26.4466 291.432 27.4883 291.328 28.6602V34.0703H298.359V37H282.832V34.0703ZM292.695 30.418C292.695 29.194 292.852 28.1003 293.164 27.1367C293.477 26.1732 293.919 25.3594 294.492 24.6953C295.078 24.0312 295.788 23.5234 296.621 23.1719C297.454 22.8203 298.392 22.6445 299.434 22.6445C299.655 22.6445 299.935 22.6641 300.273 22.7031C300.612 22.7292 300.964 22.7747 301.328 22.8398C301.706 22.9049 302.083 22.9896 302.461 23.0938C302.839 23.1849 303.177 23.2956 303.477 23.4258V18.8164H304.258V24.4023C303.893 24.2461 303.496 24.1094 303.066 23.9922C302.65 23.862 302.22 23.7513 301.777 23.6602C301.348 23.569 300.931 23.5039 300.527 23.4648C300.124 23.4128 299.759 23.3867 299.434 23.3867C298.483 23.3867 297.637 23.543 296.895 23.8555C296.165 24.168 295.547 24.6172 295.039 25.2031C294.531 25.7891 294.141 26.5052 293.867 27.3516C293.607 28.1979 293.477 29.1549 293.477 30.2227V32.8984H292.695V30.418ZM284.004 22.8398H286.309V23.582H284.004V22.8398ZM299.766 38.3672V35.1641H300.547V39.1094H284.004V38.3672H299.766Z" fill="black"/>
<path d="M534.93 401.875H540.223V383.809H534.93V380.684H549.539C551.271 380.684 552.794 380.729 554.109 380.82C555.424 380.898 556.616 381.081 557.684 381.367C560.483 382.135 562.579 383.457 563.973 385.332C565.366 387.207 566.062 389.707 566.062 392.832C566.062 394.264 565.893 395.592 565.555 396.816C565.229 398.027 564.721 399.121 564.031 400.098C563.354 401.061 562.495 401.888 561.453 402.578C560.424 403.268 559.207 403.802 557.801 404.18C556.746 404.466 555.548 404.674 554.207 404.805C552.879 404.935 551.388 405 549.734 405H534.93V401.875ZM549.109 406.367C550.021 406.367 550.919 406.341 551.805 406.289C552.69 406.25 553.53 406.191 554.324 406.113C555.118 406.035 555.848 405.938 556.512 405.82C557.189 405.716 557.775 405.599 558.27 405.469C559.676 405.104 560.945 404.551 562.078 403.809C563.224 403.053 564.194 402.142 564.988 401.074C565.783 399.993 566.395 398.763 566.824 397.383C567.254 395.99 567.469 394.473 567.469 392.832C567.469 391.621 567.358 390.527 567.137 389.551C566.915 388.561 566.59 387.663 566.16 386.855C565.73 386.035 565.197 385.286 564.559 384.609C563.934 383.932 563.211 383.294 562.391 382.695C563.341 383.177 564.181 383.737 564.91 384.375C565.639 385.013 566.251 385.749 566.746 386.582C567.241 387.415 567.618 388.353 567.879 389.395C568.139 390.423 568.27 391.569 568.27 392.832C568.27 394.512 568.048 396.081 567.605 397.539C567.176 398.984 566.544 400.286 565.711 401.445C564.878 402.591 563.849 403.568 562.625 404.375C561.401 405.182 560.001 405.788 558.426 406.191C557.319 406.465 555.997 406.686 554.461 406.855C552.924 407.025 551.141 407.109 549.109 407.109H536.18V406.367H549.109ZM550.672 401.875C552.599 401.875 554.227 401.706 555.555 401.367C556.883 401.029 557.957 400.508 558.777 399.805C559.598 399.102 560.19 398.203 560.555 397.109C560.919 396.016 561.102 394.707 561.102 393.184V392.461C561.102 390.977 560.913 389.694 560.535 388.613C560.171 387.533 559.572 386.634 558.738 385.918C557.905 385.202 556.811 384.674 555.457 384.336C554.116 383.984 552.462 383.809 550.496 383.809H544.617V401.875H550.672ZM545.984 385.176H550.125C551.427 385.176 552.527 385.228 553.426 385.332C554.324 385.423 555.086 385.573 555.711 385.781C556.349 385.977 556.896 386.237 557.352 386.562C557.82 386.888 558.276 387.279 558.719 387.734C558.237 387.435 557.729 387.174 557.195 386.953C556.674 386.719 556.082 386.53 555.418 386.387C554.754 386.23 553.992 386.113 553.133 386.035C552.273 385.957 551.271 385.918 550.125 385.918H546.766V400.703H545.984V385.176ZM536.102 385.176H539.402V385.918H536.102V385.176ZM572.645 395.938C572.645 394.557 572.898 393.242 573.406 391.992C573.914 390.742 574.676 389.642 575.691 388.691C576.707 387.741 577.97 386.986 579.48 386.426C580.991 385.853 582.742 385.566 584.734 385.566C586.609 385.566 588.283 385.82 589.754 386.328C591.225 386.823 592.475 387.546 593.504 388.496C594.533 389.447 595.314 390.612 595.848 391.992C596.395 393.359 596.668 394.922 596.668 396.68H576.922C577.039 397.617 577.339 398.451 577.82 399.18C578.315 399.909 578.94 400.527 579.695 401.035C580.451 401.53 581.303 401.908 582.254 402.168C583.217 402.428 584.22 402.559 585.262 402.559C586.108 402.559 586.967 402.493 587.84 402.363C588.725 402.22 589.559 402.031 590.34 401.797C591.121 401.562 591.818 401.302 592.43 401.016C593.042 400.716 593.51 400.41 593.836 400.098H594.578L596.414 402.09C595.073 403.236 593.439 404.108 591.512 404.707C589.598 405.293 587.482 405.586 585.164 405.586C583.146 405.586 581.355 405.339 579.793 404.844C578.243 404.349 576.935 403.665 575.867 402.793C574.812 401.921 574.012 400.898 573.465 399.727C572.918 398.555 572.645 397.292 572.645 395.938ZM597.996 398.047C598.022 397.852 598.042 397.643 598.055 397.422C598.068 397.188 598.074 396.94 598.074 396.68C598.074 395.573 597.957 394.518 597.723 393.516C597.501 392.5 597.169 391.562 596.727 390.703C596.297 389.831 595.763 389.036 595.125 388.32C594.487 387.604 593.764 386.992 592.957 386.484C593.816 386.823 594.604 387.292 595.32 387.891C596.049 388.477 596.674 389.193 597.195 390.039C597.716 390.885 598.12 391.862 598.406 392.969C598.706 394.076 598.855 395.312 598.855 396.68C598.855 396.784 598.849 396.914 598.836 397.07C598.836 397.227 598.829 397.402 598.816 397.598C598.803 397.793 598.784 397.995 598.758 398.203C598.745 398.398 598.725 398.594 598.699 398.789H580.242C580.49 399.206 580.945 399.635 581.609 400.078C582.273 400.508 583.133 400.872 584.188 401.172C583.536 401.172 582.924 401.094 582.352 400.938C581.792 400.781 581.277 400.566 580.809 400.293C580.353 400.02 579.949 399.694 579.598 399.316C579.259 398.926 578.992 398.503 578.797 398.047H597.996ZM592.156 394.238C591.948 393.34 591.622 392.539 591.18 391.836C590.75 391.133 590.216 390.547 589.578 390.078C588.94 389.596 588.211 389.232 587.391 388.984C586.57 388.724 585.672 388.594 584.695 388.594C583.641 388.594 582.677 388.737 581.805 389.023C580.945 389.297 580.19 389.688 579.539 390.195C578.888 390.69 578.348 391.283 577.918 391.973C577.501 392.663 577.208 393.418 577.039 394.238H592.156ZM578.816 393.398C579.298 392.331 580.053 391.491 581.082 390.879C582.124 390.267 583.328 389.961 584.695 389.961C585.255 389.961 585.796 390.007 586.316 390.098C586.85 390.189 587.339 390.332 587.781 390.527C588.237 390.71 588.634 390.938 588.973 391.211C589.311 391.484 589.578 391.797 589.773 392.148C589.031 391.654 588.237 391.289 587.391 391.055C586.544 390.82 585.633 390.703 584.656 390.703C583.523 390.703 582.527 390.938 581.668 391.406C580.809 391.875 580.158 392.539 579.715 393.398H578.816ZM575.008 404.141C576.271 405.039 577.736 405.736 579.402 406.23C581.082 406.725 583.003 406.973 585.164 406.973C587.273 406.973 589.246 406.732 591.082 406.25C592.931 405.768 594.598 405.033 596.082 404.043L596.609 404.609C594.93 405.742 593.159 406.543 591.297 407.012C589.448 407.48 587.508 407.715 585.477 407.715C582.833 407.715 580.639 407.396 578.895 406.758C577.163 406.12 575.867 405.247 575.008 404.141ZM603.992 399.629H608.016C608.367 400.163 608.868 400.632 609.52 401.035C610.171 401.439 610.913 401.771 611.746 402.031C612.592 402.292 613.517 402.487 614.52 402.617C615.522 402.747 616.551 402.812 617.605 402.812C618.478 402.812 619.22 402.747 619.832 402.617C620.444 402.487 620.939 402.305 621.316 402.07C621.694 401.836 621.967 401.562 622.137 401.25C622.306 400.938 622.391 400.592 622.391 400.215C622.391 399.421 621.753 398.743 620.477 398.184C619.214 397.611 617.208 397.174 614.461 396.875C612.638 396.68 611.115 396.413 609.891 396.074C608.667 395.723 607.677 395.299 606.922 394.805C606.18 394.31 605.646 393.743 605.32 393.105C605.008 392.467 604.852 391.764 604.852 390.996C604.852 390.332 605.06 389.674 605.477 389.023C605.893 388.372 606.525 387.793 607.371 387.285C608.23 386.764 609.298 386.348 610.574 386.035C611.863 385.723 613.374 385.566 615.105 385.566C615.665 385.566 616.238 385.605 616.824 385.684C617.41 385.762 617.983 385.879 618.543 386.035C619.103 386.178 619.637 386.354 620.145 386.562C620.652 386.771 621.108 387.005 621.512 387.266V386.172H625.711V391.445H621.512C621.368 391.042 621.069 390.658 620.613 390.293C620.158 389.928 619.617 389.609 618.992 389.336C618.367 389.062 617.703 388.848 617 388.691C616.297 388.522 615.633 388.438 615.008 388.438C614.188 388.438 613.413 388.496 612.684 388.613C611.954 388.73 611.323 388.9 610.789 389.121C610.255 389.329 609.832 389.583 609.52 389.883C609.207 390.182 609.051 390.514 609.051 390.879C609.051 391.217 609.168 391.523 609.402 391.797C609.65 392.07 610.053 392.324 610.613 392.559C611.186 392.793 611.941 393.014 612.879 393.223C613.829 393.418 615.008 393.6 616.414 393.77C618.289 394.004 619.871 394.303 621.16 394.668C622.449 395.033 623.497 395.482 624.305 396.016C625.112 396.536 625.691 397.148 626.043 397.852C626.408 398.555 626.59 399.362 626.59 400.273C626.59 400.938 626.388 401.589 625.984 402.227C625.581 402.852 624.988 403.418 624.207 403.926C623.439 404.421 622.488 404.818 621.355 405.117C620.236 405.43 618.947 405.586 617.488 405.586C616.551 405.586 615.672 405.547 614.852 405.469C614.031 405.404 613.243 405.286 612.488 405.117C611.733 404.948 611.004 404.733 610.301 404.473C609.598 404.212 608.895 403.893 608.191 403.516V405H603.992V399.629ZM622.469 392.812H627.117V386.992H627.898V393.555H622.469V392.812ZM610.477 390.879C610.516 390.71 610.672 390.553 610.945 390.41C611.219 390.267 611.564 390.143 611.98 390.039C612.41 389.922 612.879 389.831 613.387 389.766C613.908 389.701 614.428 389.668 614.949 389.668C615.392 389.668 615.848 389.701 616.316 389.766C616.798 389.831 617.247 389.922 617.664 390.039C618.094 390.156 618.478 390.306 618.816 390.488C619.168 390.658 619.441 390.853 619.637 391.074C619.337 390.944 618.979 390.84 618.562 390.762C618.146 390.671 617.716 390.599 617.273 390.547C616.844 390.495 616.421 390.456 616.004 390.43C615.587 390.404 615.236 390.391 614.949 390.391C613.895 390.391 612.977 390.443 612.195 390.547C611.427 390.651 610.854 390.762 610.477 390.879ZM605.125 394.746C605.49 395.215 605.926 395.632 606.434 395.996C606.941 396.361 607.553 396.686 608.27 396.973C608.986 397.259 609.819 397.507 610.77 397.715C611.72 397.91 612.814 398.079 614.051 398.223C615.184 398.353 616.167 398.496 617 398.652C617.833 398.796 618.53 398.958 619.09 399.141C619.65 399.323 620.086 399.531 620.398 399.766C620.711 399.987 620.913 400.241 621.004 400.527C620.73 400.345 620.418 400.189 620.066 400.059C619.715 399.915 619.266 399.785 618.719 399.668C618.172 399.551 617.495 399.434 616.688 399.316C615.893 399.199 614.904 399.069 613.719 398.926C611.271 398.639 609.337 398.177 607.918 397.539C606.499 396.888 605.568 395.957 605.125 394.746ZM609.598 406.367V405.547C609.962 405.716 610.424 405.879 610.984 406.035C611.544 406.204 612.169 406.354 612.859 406.484C613.562 406.628 614.305 406.738 615.086 406.816C615.867 406.908 616.661 406.953 617.469 406.953C619.083 406.953 620.542 406.771 621.844 406.406C623.146 406.055 624.253 405.579 625.164 404.98C626.076 404.368 626.772 403.665 627.254 402.871C627.749 402.064 627.996 401.217 627.996 400.332C627.996 399.98 627.977 399.655 627.938 399.355C627.898 399.056 627.827 398.77 627.723 398.496C627.632 398.223 627.501 397.949 627.332 397.676C627.176 397.402 626.974 397.116 626.727 396.816C628.094 397.624 628.777 398.796 628.777 400.332C628.777 401.374 628.51 402.344 627.977 403.242C627.443 404.141 626.681 404.915 625.691 405.566C624.715 406.23 623.53 406.751 622.137 407.129C620.743 407.507 619.181 407.695 617.449 407.695C616.811 407.695 616.167 407.663 615.516 407.598C614.865 407.546 614.233 407.467 613.621 407.363C613.009 407.259 612.43 407.135 611.883 406.992C611.336 406.849 610.848 406.686 610.418 406.504V407.148H604.949V406.367H609.598ZM637.723 377.383H642.508V381.289H637.723V377.383ZM638.895 382.656H643.914V378.477H644.695V383.398H638.895V382.656ZM633.621 402.07H638.895L638.309 389.473H633.621V386.152H642.508V402.07H647V405H633.621V402.07ZM643.875 387.148H644.656V400.898H643.875V387.148ZM634.793 390.84H637.488V391.582H634.793V390.84ZM648.406 406.367V403.164H649.188V407.109H634.793V406.367H648.406ZM654.695 408.418C655.333 409.082 656.043 409.635 656.824 410.078C657.618 410.534 658.419 410.898 659.227 411.172C660.047 411.445 660.848 411.641 661.629 411.758C662.41 411.875 663.113 411.934 663.738 411.934C664.962 411.934 666.062 411.816 667.039 411.582C668.016 411.361 668.842 410.951 669.52 410.352C670.21 409.753 670.737 408.932 671.102 407.891C671.466 406.849 671.648 405.508 671.648 403.867V402.109C671.154 402.578 670.594 403.001 669.969 403.379C669.344 403.757 668.673 404.082 667.957 404.355C667.241 404.629 666.486 404.837 665.691 404.98C664.91 405.124 664.116 405.195 663.309 405.195C661.486 405.195 659.865 404.967 658.445 404.512C657.039 404.056 655.854 403.411 654.891 402.578C653.927 401.732 653.191 400.71 652.684 399.512C652.189 398.314 651.941 396.973 651.941 395.488C651.941 394.681 652.059 393.88 652.293 393.086C652.527 392.279 652.872 391.51 653.328 390.781C653.797 390.039 654.37 389.355 655.047 388.73C655.737 388.092 656.525 387.539 657.41 387.07C658.296 386.602 659.285 386.237 660.379 385.977C661.473 385.703 662.658 385.566 663.934 385.566C664.533 385.566 665.171 385.625 665.848 385.742C666.538 385.846 667.221 386.016 667.898 386.25C668.576 386.484 669.233 386.79 669.871 387.168C670.522 387.533 671.115 387.975 671.648 388.496V386.152H680.047V389.473H675.75V403.867C675.75 405.964 675.457 407.721 674.871 409.141C674.285 410.56 673.465 411.699 672.41 412.559C671.355 413.418 670.099 414.03 668.641 414.395C667.195 414.772 665.607 414.961 663.875 414.961C662.859 414.961 661.818 414.883 660.75 414.727C659.682 414.57 658.641 414.329 657.625 414.004C656.622 413.691 655.678 413.281 654.793 412.773C653.908 412.279 653.146 411.68 652.508 410.977L654.695 408.418ZM653.66 413.691C654.311 414.16 655.047 414.564 655.867 414.902C656.688 415.241 657.547 415.514 658.445 415.723C659.344 415.931 660.255 416.081 661.18 416.172C662.104 416.276 663.003 416.328 663.875 416.328C665.06 416.328 666.212 416.237 667.332 416.055C668.452 415.885 669.5 415.605 670.477 415.215C671.466 414.824 672.371 414.31 673.191 413.672C674.012 413.034 674.715 412.246 675.301 411.309C675.887 410.384 676.342 409.297 676.668 408.047C676.993 406.81 677.156 405.384 677.156 403.77V390.84H681.453V387.246H682.234V391.582H677.938V403.77C677.938 405.462 677.768 406.966 677.43 408.281C677.091 409.596 676.616 410.749 676.004 411.738C675.392 412.728 674.656 413.561 673.797 414.238C672.938 414.915 671.987 415.462 670.945 415.879C669.904 416.296 668.784 416.595 667.586 416.777C666.388 416.973 665.151 417.07 663.875 417.07C662.885 417.07 661.876 416.992 660.848 416.836C659.819 416.68 658.842 416.452 657.918 416.152C657.007 415.866 656.173 415.514 655.418 415.098C654.676 414.681 654.09 414.212 653.66 413.691ZM656.18 395.332C656.18 396.335 656.336 397.259 656.648 398.105C656.974 398.939 657.449 399.661 658.074 400.273C658.712 400.872 659.493 401.341 660.418 401.68C661.355 402.018 662.43 402.188 663.641 402.188C664.604 402.188 665.561 402.07 666.512 401.836C667.475 401.589 668.335 401.191 669.09 400.645C669.858 400.098 670.477 399.382 670.945 398.496C671.414 397.611 671.648 396.523 671.648 395.234C671.648 394.31 671.447 393.444 671.043 392.637C670.639 391.829 670.086 391.126 669.383 390.527C668.68 389.928 667.853 389.46 666.902 389.121C665.965 388.77 664.962 388.594 663.895 388.594C662.853 388.594 661.863 388.757 660.926 389.082C660.001 389.408 659.188 389.87 658.484 390.469C657.781 391.068 657.221 391.784 656.805 392.617C656.388 393.438 656.18 394.342 656.18 395.332ZM657.547 395.371C657.547 394.629 657.703 393.932 658.016 393.281C658.328 392.617 658.764 392.044 659.324 391.562C659.884 391.068 660.555 390.677 661.336 390.391C662.117 390.104 662.97 389.961 663.895 389.961C665.132 389.961 666.154 390.163 666.961 390.566C667.781 390.957 668.426 391.458 668.895 392.07C668.582 391.875 668.257 391.693 667.918 391.523C667.592 391.354 667.228 391.211 666.824 391.094C666.434 390.964 665.997 390.866 665.516 390.801C665.034 390.723 664.493 390.684 663.895 390.684C663.074 390.684 662.326 390.814 661.648 391.074C660.971 391.322 660.385 391.66 659.891 392.09C659.409 392.52 659.031 393.014 658.758 393.574C658.497 394.121 658.367 394.694 658.367 395.293C658.367 396.569 658.667 397.663 659.266 398.574C659.878 399.473 660.887 400.202 662.293 400.762C661.616 400.697 660.984 400.521 660.398 400.234C659.826 399.948 659.324 399.57 658.895 399.102C658.478 398.633 658.146 398.086 657.898 397.461C657.664 396.823 657.547 396.126 657.547 395.371ZM654.305 403.77C654.839 404.199 655.451 404.59 656.141 404.941C656.844 405.28 657.586 405.566 658.367 405.801C659.161 406.048 659.975 406.237 660.809 406.367C661.655 406.497 662.495 406.562 663.328 406.562C664.773 406.562 666.121 406.387 667.371 406.035C668.634 405.697 669.754 405.208 670.73 404.57L670.613 405.547C669.637 406.133 668.523 406.569 667.273 406.855C666.036 407.155 664.728 407.305 663.348 407.305C661.238 407.305 659.409 407.005 657.859 406.406C656.31 405.82 655.125 404.941 654.305 403.77ZM686.59 402.07H690.887V389.473H686.59V386.152H695.086V389.102C695.49 388.607 695.971 388.145 696.531 387.715C697.104 387.285 697.742 386.914 698.445 386.602C699.148 386.276 699.91 386.022 700.73 385.84C701.551 385.658 702.41 385.566 703.309 385.566C704.663 385.566 705.893 385.762 707 386.152C708.107 386.53 709.051 387.122 709.832 387.93C710.613 388.724 711.212 389.733 711.629 390.957C712.059 392.168 712.273 393.607 712.273 395.273V402.07H716.57V405H704.754V402.07H708.074V396.934C708.074 395.879 708.022 394.941 707.918 394.121C707.827 393.288 707.69 392.637 707.508 392.168C707.273 391.569 706.974 391.061 706.609 390.645C706.258 390.228 705.854 389.889 705.398 389.629C704.956 389.368 704.467 389.18 703.934 389.062C703.4 388.945 702.833 388.887 702.234 388.887C701.596 388.887 700.932 389.004 700.242 389.238C699.565 389.473 698.901 389.805 698.25 390.234C697.612 390.651 697.013 391.146 696.453 391.719C695.906 392.292 695.451 392.91 695.086 393.574V402.07H698.406V405H686.59V402.07ZM713.68 395.41C713.68 394.264 713.589 393.203 713.406 392.227C713.237 391.237 712.977 390.352 712.625 389.57C712.273 388.776 711.837 388.092 711.316 387.52C710.809 386.947 710.216 386.491 709.539 386.152C710.424 386.374 711.18 386.751 711.805 387.285C712.43 387.806 712.938 388.47 713.328 389.277C713.719 390.085 714.005 391.016 714.188 392.07C714.37 393.125 714.461 394.284 714.461 395.547V400.898H713.68V395.41ZM696.492 394.062C696.818 393.49 697.202 392.969 697.645 392.5C698.1 392.031 698.589 391.634 699.109 391.309C699.643 390.97 700.197 390.71 700.77 390.527C701.355 390.345 701.935 390.254 702.508 390.254C703.406 390.254 704.135 390.423 704.695 390.762C705.255 391.1 705.665 391.53 705.926 392.051C705.522 391.751 705.047 391.497 704.5 391.289C703.966 391.081 703.289 390.977 702.469 390.977C701.961 390.977 701.447 391.074 700.926 391.27C700.405 391.452 699.91 391.699 699.441 392.012C698.973 392.324 698.549 392.682 698.172 393.086C697.794 393.49 697.495 393.9 697.273 394.316V400.898H696.492V394.062ZM687.762 390.84H690.066V391.582H687.762V390.84ZM717.977 406.367V403.164H718.758V407.109H705.926V406.367H717.977ZM699.812 406.367V403.164H700.594V407.109H687.762V406.367H699.812ZM721.746 395.938C721.746 394.557 722 393.242 722.508 391.992C723.016 390.742 723.777 389.642 724.793 388.691C725.809 387.741 727.072 386.986 728.582 386.426C730.092 385.853 731.844 385.566 733.836 385.566C735.711 385.566 737.384 385.82 738.855 386.328C740.327 386.823 741.577 387.546 742.605 388.496C743.634 389.447 744.415 390.612 744.949 391.992C745.496 393.359 745.77 394.922 745.77 396.68H726.023C726.141 397.617 726.44 398.451 726.922 399.18C727.417 399.909 728.042 400.527 728.797 401.035C729.552 401.53 730.405 401.908 731.355 402.168C732.319 402.428 733.322 402.559 734.363 402.559C735.21 402.559 736.069 402.493 736.941 402.363C737.827 402.22 738.66 402.031 739.441 401.797C740.223 401.562 740.919 401.302 741.531 401.016C742.143 400.716 742.612 400.41 742.938 400.098H743.68L745.516 402.09C744.174 403.236 742.54 404.108 740.613 404.707C738.699 405.293 736.583 405.586 734.266 405.586C732.247 405.586 730.457 405.339 728.895 404.844C727.345 404.349 726.036 403.665 724.969 402.793C723.914 401.921 723.113 400.898 722.566 399.727C722.02 398.555 721.746 397.292 721.746 395.938ZM747.098 398.047C747.124 397.852 747.143 397.643 747.156 397.422C747.169 397.188 747.176 396.94 747.176 396.68C747.176 395.573 747.059 394.518 746.824 393.516C746.603 392.5 746.271 391.562 745.828 390.703C745.398 389.831 744.865 389.036 744.227 388.32C743.589 387.604 742.866 386.992 742.059 386.484C742.918 386.823 743.706 387.292 744.422 387.891C745.151 388.477 745.776 389.193 746.297 390.039C746.818 390.885 747.221 391.862 747.508 392.969C747.807 394.076 747.957 395.312 747.957 396.68C747.957 396.784 747.951 396.914 747.938 397.07C747.938 397.227 747.931 397.402 747.918 397.598C747.905 397.793 747.885 397.995 747.859 398.203C747.846 398.398 747.827 398.594 747.801 398.789H729.344C729.591 399.206 730.047 399.635 730.711 400.078C731.375 400.508 732.234 400.872 733.289 401.172C732.638 401.172 732.026 401.094 731.453 400.938C730.893 400.781 730.379 400.566 729.91 400.293C729.454 400.02 729.051 399.694 728.699 399.316C728.361 398.926 728.094 398.503 727.898 398.047H747.098ZM741.258 394.238C741.049 393.34 740.724 392.539 740.281 391.836C739.852 391.133 739.318 390.547 738.68 390.078C738.042 389.596 737.312 389.232 736.492 388.984C735.672 388.724 734.773 388.594 733.797 388.594C732.742 388.594 731.779 388.737 730.906 389.023C730.047 389.297 729.292 389.688 728.641 390.195C727.99 390.69 727.449 391.283 727.02 391.973C726.603 392.663 726.31 393.418 726.141 394.238H741.258ZM727.918 393.398C728.4 392.331 729.155 391.491 730.184 390.879C731.225 390.267 732.43 389.961 733.797 389.961C734.357 389.961 734.897 390.007 735.418 390.098C735.952 390.189 736.44 390.332 736.883 390.527C737.339 390.71 737.736 390.938 738.074 391.211C738.413 391.484 738.68 391.797 738.875 392.148C738.133 391.654 737.339 391.289 736.492 391.055C735.646 390.82 734.734 390.703 733.758 390.703C732.625 390.703 731.629 390.938 730.77 391.406C729.91 391.875 729.259 392.539 728.816 393.398H727.918ZM724.109 404.141C725.372 405.039 726.837 405.736 728.504 406.23C730.184 406.725 732.104 406.973 734.266 406.973C736.375 406.973 738.348 406.732 740.184 406.25C742.033 405.768 743.699 405.033 745.184 404.043L745.711 404.609C744.031 405.742 742.26 406.543 740.398 407.012C738.549 407.48 736.609 407.715 734.578 407.715C731.935 407.715 729.741 407.396 727.996 406.758C726.264 406.12 724.969 405.247 724.109 404.141ZM752.84 402.07H757.137V389.473H752.84V386.152H761.336V389.414C761.74 388.893 762.221 388.398 762.781 387.93C763.354 387.461 763.999 387.051 764.715 386.699C765.431 386.348 766.212 386.074 767.059 385.879C767.905 385.671 768.81 385.566 769.773 385.566C770.06 385.566 770.418 385.579 770.848 385.605C771.277 385.618 771.688 385.658 772.078 385.723V389.551C771.622 389.447 771.173 389.375 770.73 389.336C770.288 389.297 769.858 389.277 769.441 389.277C768.4 389.277 767.41 389.447 766.473 389.785C765.548 390.111 764.721 390.592 763.992 391.23C763.263 391.855 762.664 392.624 762.195 393.535C761.727 394.447 761.44 395.488 761.336 396.66V402.07H768.367V405H752.84V402.07ZM762.703 398.418C762.703 397.194 762.859 396.1 763.172 395.137C763.484 394.173 763.927 393.359 764.5 392.695C765.086 392.031 765.796 391.523 766.629 391.172C767.462 390.82 768.4 390.645 769.441 390.645C769.663 390.645 769.943 390.664 770.281 390.703C770.62 390.729 770.971 390.775 771.336 390.84C771.714 390.905 772.091 390.99 772.469 391.094C772.846 391.185 773.185 391.296 773.484 391.426V386.816H774.266V392.402C773.901 392.246 773.504 392.109 773.074 391.992C772.658 391.862 772.228 391.751 771.785 391.66C771.355 391.569 770.939 391.504 770.535 391.465C770.132 391.413 769.767 391.387 769.441 391.387C768.491 391.387 767.645 391.543 766.902 391.855C766.173 392.168 765.555 392.617 765.047 393.203C764.539 393.789 764.148 394.505 763.875 395.352C763.615 396.198 763.484 397.155 763.484 398.223V400.898H762.703V398.418ZM754.012 390.84H756.316V391.582H754.012V390.84ZM769.773 406.367V403.164H770.555V407.109H754.012V406.367H769.773Z" fill="black"/>
</svg>
