<svg width="806" height="300" viewBox="0 0 806 300" fill="none" xmlns="http://www.w3.org/2000/svg">
<path d="M32 2H440.254L344.797 298H32C15.4314 298 2 284.569 2 268V32C2 15.4315 15.4315 2 32 2Z" stroke="black" stroke-width="4"/>
<path d="M774 298H365.746L461.203 2H774C790.569 2 804 15.4315 804 32V268C804 284.569 790.569 298 774 298Z" stroke="black" stroke-width="4"/>
<path d="M102.927 149.968C105.033 139.019 109.188 128.63 115.392 118.801C121.693 108.891 129.709 100.221 139.44 92.7886C149.171 85.3565 160.514 79.4828 173.47 75.1674C186.522 70.7721 200.861 68.5744 216.486 68.5744C232.762 68.5744 246.497 70.5723 257.691 74.568C268.982 78.4838 277.858 83.958 284.317 90.9905C290.858 98.023 295.118 106.334 297.098 115.924C299.078 125.514 298.984 135.943 296.816 147.21C294.71 158.159 290.586 168.388 284.443 177.898C278.381 187.408 270.598 195.719 261.091 202.831C251.6 209.864 240.481 215.418 227.734 219.493C215.069 223.569 201.127 225.607 185.909 225.607C172.806 225.607 160.663 224.008 149.478 220.812C138.374 217.615 128.953 212.86 121.216 206.547C113.494 200.154 107.896 192.242 104.42 182.812C101.026 173.383 100.528 162.434 102.927 149.968ZM117.612 213.859C121.194 216.816 125.35 219.533 130.082 222.011C134.91 224.408 140.167 226.486 145.851 228.244C151.6 230.082 157.72 231.481 164.208 232.439C170.682 233.478 177.377 233.998 184.294 233.998C199.431 233.998 213.78 231.96 227.341 227.884C240.886 223.889 253.02 218.135 263.743 210.623C274.481 203.031 283.476 193.921 290.729 183.292C298.079 172.583 303.038 160.556 305.605 147.21C306.882 140.578 307.206 134.025 306.58 127.551C306.05 120.998 304.686 114.765 302.487 108.851C300.288 102.938 297.28 97.4236 293.463 92.3091C289.645 87.1945 285.135 82.7193 279.932 78.8834C286.25 82.0001 291.633 85.9559 296.082 90.7507C300.627 95.4657 304.203 100.78 306.809 106.694C309.414 112.607 311.033 119.001 311.664 125.873C312.295 132.746 311.903 139.858 310.488 147.21C307.828 161.036 302.81 173.582 295.434 184.85C288.14 196.118 278.922 205.748 267.782 213.739C256.738 221.651 244.047 227.764 229.707 232.08C215.449 236.395 200.02 238.553 183.418 238.553C168.037 238.553 154.798 236.515 143.701 232.439C132.588 228.444 123.892 222.25 117.612 213.859ZM133.629 149.009C131.876 158.119 131.984 166.23 133.952 173.343C135.92 180.455 139.357 186.489 144.264 191.443C149.266 196.318 155.51 200.034 162.993 202.591C170.557 205.149 179.06 206.427 188.5 206.427C199.324 206.427 209.152 204.829 217.987 201.632C226.918 198.356 234.714 194.001 241.375 188.566C248.035 183.132 253.474 176.859 257.691 169.746C261.923 162.554 264.792 155.042 266.299 147.21C268.036 138.18 268.066 129.989 266.388 122.637C264.791 115.285 261.637 109.051 256.924 103.937C252.308 98.7422 246.2 94.7465 238.6 91.9495C231.082 89.1525 222.277 87.7539 212.186 87.7539C202.42 87.7539 193.143 89.2324 184.355 92.1892C175.663 95.0661 167.832 99.1817 160.861 104.536C153.972 109.89 148.129 116.363 143.331 123.955C138.631 131.467 135.397 139.818 133.629 149.009ZM142.349 149.368C143.763 142.016 146.354 135.103 150.122 128.63C153.972 122.157 158.84 116.523 164.727 111.728C170.613 106.933 177.407 103.138 185.106 100.341C192.806 97.5435 201.294 96.145 210.571 96.145C220.744 96.145 229.383 97.983 236.488 101.659C243.609 105.255 249.201 110.45 253.266 117.242C246.8 111.089 239.972 106.814 232.784 104.416C225.692 101.939 217.996 100.7 209.695 100.7C201.313 100.7 193.58 101.979 186.496 104.536C179.412 107.093 173.161 110.61 167.743 115.085C162.422 119.48 157.971 124.635 154.392 130.548C150.894 136.462 148.507 142.735 147.231 149.368C146.217 154.643 146.176 159.717 147.11 164.592C148.059 169.387 149.884 173.862 152.584 178.018C155.284 182.173 158.801 185.889 163.134 189.166C167.468 192.442 172.553 195.199 178.389 197.437C171.361 196.318 165.276 194.32 160.133 191.443C155.086 188.486 151.058 184.89 148.048 180.655C145.038 176.419 143.023 171.664 142.003 166.39C141.08 161.036 141.195 155.362 142.349 149.368ZM323.715 208.201H346.655L362.014 128.367H337.756L340.413 114.557H409.759C416.497 114.557 422.539 114.672 427.886 114.903C433.291 115.133 438.113 115.651 442.352 116.456C447.32 117.434 451.444 118.844 454.722 120.685C458.012 122.469 460.521 124.655 462.249 127.245C464.036 129.834 465.113 132.768 465.478 136.048C465.901 139.328 465.737 142.924 464.984 146.836C464.364 150.059 463.169 153.223 461.4 156.33C459.689 159.437 457.454 162.372 454.696 165.134C451.949 167.838 448.667 170.283 444.847 172.47C441.087 174.656 436.847 176.44 432.128 177.821C427.117 179.202 421.672 180.094 415.793 180.497C409.985 180.842 403.711 181.014 396.973 181.014H371.836L366.606 208.201H397.895L395.238 222.011H321.059L323.715 208.201ZM376.826 187.056H390.889C396.045 187.056 400.504 187.027 404.265 186.97C408.026 186.912 411.388 186.797 414.351 186.624C417.383 186.394 420.105 186.107 422.515 185.761C424.995 185.359 427.491 184.869 430.004 184.294C435.638 183.028 440.786 181.245 445.448 178.943C450.12 176.584 454.202 173.793 457.693 170.571C461.254 167.291 464.189 163.609 466.498 159.524C468.819 155.381 470.444 150.893 471.374 146.06C472.514 140.133 472.322 135.041 470.797 130.783C469.342 126.468 466.486 122.584 462.228 119.132C464.973 120.397 467.294 122.037 469.192 124.051C471.101 126.008 472.584 128.194 473.643 130.611C474.701 133.027 475.357 135.559 475.609 138.206C475.862 140.852 475.739 143.47 475.241 146.06C474.256 151.181 472.482 155.985 469.919 160.473C467.356 164.961 464.086 169.018 460.107 172.643C456.187 176.267 451.57 179.403 446.256 182.05C441.012 184.639 435.157 186.596 428.692 187.919C426.739 188.322 424.558 188.696 422.148 189.041C419.749 189.329 417.003 189.588 413.912 189.818C410.832 189.99 407.347 190.134 403.458 190.249C399.58 190.307 395.18 190.336 390.258 190.336H379.711L377.27 203.023H373.755L376.826 187.056ZM403.409 167.205C408.39 167.205 412.748 167.09 416.483 166.86C420.219 166.63 423.571 166.112 426.538 165.306C431.843 163.925 435.75 161.739 438.259 158.747C440.827 155.755 442.542 152.015 443.406 147.527C444.07 144.075 443.99 141.14 443.166 138.724C442.342 136.307 440.644 134.322 438.071 132.768C435.499 131.215 431.965 130.093 427.469 129.402C423.032 128.712 417.502 128.367 410.881 128.367H381.965L374.493 167.205H403.409ZM386.955 134.408H409.104C418.069 134.408 424.801 134.897 429.3 135.875C433.858 136.854 436.637 138.551 437.637 140.968C436.564 140.45 435.247 139.989 433.684 139.587C432.179 139.184 430.283 138.839 427.994 138.551C425.706 138.263 422.961 138.062 419.761 137.947C416.63 137.774 412.867 137.688 408.473 137.688H389.84L385.157 162.027H381.642L386.955 134.408ZM341.34 134.408H355.315L354.684 137.688H340.709L341.34 134.408ZM400.404 228.052L403.293 213.035H406.809L403.289 231.332H324.89L325.521 228.052H400.404ZM493.98 178.857H519.004C527.983 188.446 538.186 195.479 549.613 199.954C561.056 204.349 573.492 206.547 586.919 206.547C592.779 206.547 598.257 205.988 603.355 204.869C608.453 203.75 612.977 202.232 616.927 200.314C620.892 198.316 624.105 195.998 626.565 193.361C629.107 190.724 630.67 187.887 631.255 184.85C631.931 181.334 631.414 178.098 629.705 175.141C627.995 172.184 624.848 169.507 620.264 167.109C615.761 164.712 609.731 162.634 602.176 160.876C594.701 159.118 585.538 157.679 574.686 156.56C562.073 155.282 551.528 153.204 543.048 150.327C534.584 147.37 527.862 143.814 522.884 139.659C517.986 135.503 514.687 130.868 512.986 125.753C511.365 120.639 511.101 115.245 512.193 109.571C513.207 104.296 515.73 99.2217 519.76 94.3469C523.806 89.3922 529.242 85.0368 536.068 81.2809C542.909 77.4449 551.11 74.3682 560.671 72.0507C570.231 69.7332 581.034 68.5744 593.078 68.5744C600.077 68.5744 606.357 69.1338 611.92 70.2526C617.58 71.2915 622.674 72.73 627.203 74.568C631.814 76.4061 635.948 78.6037 639.607 81.161C643.28 83.6383 646.672 86.3155 649.78 89.1924L652.94 72.7699H680.406L672.103 115.924H644.637C642.965 111.928 640.506 108.212 637.261 104.776C634.016 101.339 630.068 98.3826 625.417 95.9052C620.864 93.348 615.714 91.3501 609.969 89.9116C604.224 88.4732 598.055 87.7539 591.463 87.7539C584.546 87.7539 578.319 88.3933 572.784 89.6719C567.345 90.8706 562.643 92.4689 558.678 94.4668C554.809 96.3847 551.749 98.5424 549.498 100.94C547.246 103.337 545.897 105.695 545.451 108.012C544.883 110.969 545.11 113.806 546.133 116.523C547.254 119.16 549.585 121.638 553.126 123.955C556.765 126.193 561.866 128.231 568.43 130.069C575.009 131.827 583.506 133.345 593.921 134.624C608.541 136.462 620.628 138.779 630.181 141.576C639.734 144.374 647.178 147.77 652.512 151.766C657.862 155.681 661.332 160.277 662.922 165.551C664.527 170.745 664.699 176.619 663.438 183.172C662.485 188.127 660.14 193.121 656.405 198.156C652.751 203.191 647.724 207.746 641.324 211.822C635.007 215.897 627.329 219.214 618.292 221.771C609.255 224.328 598.959 225.607 587.403 225.607C580.16 225.607 573.294 225.127 566.806 224.168C560.383 223.289 554.248 221.971 548.402 220.213C542.652 218.375 537.141 216.137 531.871 213.5C526.6 210.863 521.495 207.786 516.557 204.27L513.143 222.011H485.678L493.98 178.857ZM650.347 124.315H679.278L688.018 78.8834H693.145L683.528 128.87H649.471L650.347 124.315ZM555.722 107.293C556.045 105.615 557.191 104.096 559.161 102.738C561.213 101.379 563.878 100.221 567.155 99.2617C570.431 98.3027 574.199 97.5435 578.457 96.9841C582.796 96.4247 587.407 96.145 592.29 96.145C599.696 96.145 606.309 97.3038 612.129 99.6213C618.046 101.859 622.734 104.776 626.193 108.372C624.099 107.413 621.712 106.494 619.033 105.615C616.369 104.656 613.519 103.817 610.484 103.098C607.545 102.298 604.446 101.699 601.186 101.299C598.023 100.82 594.855 100.58 591.681 100.58C582.811 100.58 575.348 101.299 569.293 102.738C563.335 104.096 558.811 105.615 555.722 107.293ZM510.198 138.34C512.288 141.856 514.895 145.013 518.019 147.81C521.225 150.607 525.224 153.084 530.017 155.242C534.892 157.4 540.675 159.278 547.366 160.876C554.139 162.474 562.145 163.793 571.385 164.832C580.381 165.871 588.027 166.949 594.322 168.068C600.699 169.187 605.913 170.426 609.965 171.784C614.032 173.063 617.043 174.541 618.999 176.22C621.036 177.898 622.246 179.856 622.63 182.093C620.531 180.735 618.239 179.536 615.753 178.497C613.364 177.378 610.187 176.339 606.221 175.38C602.271 174.342 597.254 173.343 591.173 172.384C585.091 171.425 577.397 170.386 568.091 169.267C558.311 168.068 549.756 166.43 542.425 164.352C535.175 162.274 529.118 159.917 524.254 157.28C519.487 154.563 515.906 151.606 513.51 148.409C511.21 145.133 510.106 141.776 510.198 138.34ZM520.318 230.402L522.601 218.534C531.398 223.569 540.874 227.405 551.027 230.042C561.18 232.679 572.727 233.998 585.666 233.998C595.513 233.998 605.235 232.959 614.83 230.881C624.426 228.803 633.204 225.687 641.165 221.531C649.126 217.376 655.871 212.141 661.398 205.828C666.926 199.515 670.505 192.123 672.135 183.652C673.119 178.537 673.441 173.902 673.101 169.746C672.858 165.511 671.516 161.275 669.076 157.04C670.767 158.399 672.194 160.077 673.356 162.075C674.615 163.993 675.583 166.15 676.261 168.548C676.955 170.865 677.373 173.343 677.517 175.98C677.676 178.537 677.509 181.094 677.017 183.652C675.326 192.442 671.671 200.234 666.051 207.027C660.512 213.819 653.594 219.533 645.297 224.168C636.984 228.883 627.633 232.439 617.243 234.837C606.838 237.314 595.98 238.553 584.668 238.553C571.973 238.553 560.828 237.474 551.233 235.316C541.72 233.159 533.385 230.162 526.229 226.326L524.569 234.957H490.511L491.388 230.402H520.318Z" fill="black"/>
</svg>
